<svg xmlns="http://www.w3.org/2000/svg" width="26.792" height="47.813" viewBox="0 0 26.792 47.813">
  <g id="Grupo_191" data-name="Grupo 191" transform="translate(-435.71 -408.629)">
    <path id="Trazado_175" data-name="Trazado 175" d="M462.5,443.03a13.182,13.182,0,0,1-26.36.45l-.43-25.28a1.5,1.5,0,1,1,3-.05l.43,25.28a10.181,10.181,0,1,0,20.36-.35l-.43-25.28a6.286,6.286,0,1,0-12.57.22l.2,11.54h-3l-.2-11.49a9.286,9.286,0,0,1,18.57-.32Z" fill="#8e8e8e"/>
    <path id="Trazado_176" data-name="Trazado 176" d="M454.49,429.56h-3l-.17-9.67a1.5,1.5,0,1,1,3-.06Z" fill="#8e8e8e"/>
  </g>
</svg>
